<?xml version="1.0" encoding="utf-8"?>
<!-- Generator: Adobe Illustrator 21.0.0, SVG Export Plug-In . SVG Version: 6.00 Build 0)  -->
<svg version="1.1" id="图层_1" xmlns="http://www.w3.org/2000/svg" xmlns:xlink="http://www.w3.org/1999/xlink" x="0px" y="0px"
	 viewBox="0 0 35 33" style="enable-background:new 0 0 35 33;" xml:space="preserve">
<style type="text/css">
	.st0{fill:url(#Page-1_1_);}
</style>
<title>图标/邮政LOGO</title>
<desc>Created with Sketch.</desc>
<g transform="translate(32.000000, 13.000000)">
	<g id="图标_x2F_邮政LOGO">
		<linearGradient id="Page-1_1_" gradientUnits="userSpaceOnUse" x1="-32" y1="3.4651" x2="2.9826" y2="3.4651">
			<stop  offset="0" style="stop-color:#3ECC2F"/>
			<stop  offset="1" style="stop-color:#2F7F05"/>
		</linearGradient>
		<path id="Page-1" class="st0" d="M-11.5-13l-1.2,4.9h-7.6l-2.3,10h-7.6l-1.7,8.1h7.8l-2.1,9.8h17.1l2.2-9.7h5.1l0.6-3.4h-7.2
			l-2.2,9.8h-13.1l0.4-1.7h11.5l2.3-9.9h8.8L-0.1,2H-11l-2.1,9.7h-9.4l0.4-1.4h7.4L-13,2h-7.5l0.4-1.8h11.4l1.3-5.1h8.6L2-8H-8.8
			l-1.4,5h-9.3L-19-5h7.5l1.4-4.7H2.3L3-13H-11.5z M-21.2,5.1h5.7l-0.4,1.7h-5.7L-21.2,5.1z M-28.9,5.1h5.7l-0.5,1.7h-5.7L-28.9,5.1
			z"/>
	</g>
</g>
</svg>
